<?xml version="1.0" encoding="UTF-8" standalone="no"?>
<!-- Created with Inkscape (http://www.inkscape.org/) -->

<svg
   xmlns:dc="http://purl.org/dc/elements/1.1/"
   xmlns:cc="http://creativecommons.org/ns#"
   xmlns:rdf="http://www.w3.org/1999/02/22-rdf-syntax-ns#"
   xmlns:svg="http://www.w3.org/2000/svg"
   xmlns="http://www.w3.org/2000/svg"
   xmlns:sodipodi="http://sodipodi.sourceforge.net/DTD/sodipodi-0.dtd"
   xmlns:inkscape="http://www.inkscape.org/namespaces/inkscape"
   version="1.1"
   id="svg834"
   xml:space="preserve"
   width="753.60614"
   height="158.33331"
   viewBox="0 0 753.60614 158.33331"
   sodipodi:docname="gas.svg"
   inkscape:version="0.92.3 (2405546, 2018-03-11)"><metadata
     id="metadata840"><rdf:RDF><cc:Work
         rdf:about=""><dc:format>image/svg+xml</dc:format><dc:type
           rdf:resource="http://purl.org/dc/dcmitype/StillImage" /><dc:title></dc:title></cc:Work></rdf:RDF></metadata><defs
     id="defs838" /><sodipodi:namedview
     pagecolor="#ffffff"
     bordercolor="#666666"
     borderopacity="1"
     objecttolerance="10"
     gridtolerance="10"
     guidetolerance="10"
     inkscape:pageopacity="0"
     inkscape:pageshadow="2"
     inkscape:window-width="1920"
     inkscape:window-height="1016"
     id="namedview836"
     showgrid="false"
     inkscape:zoom="1.8710039"
     inkscape:cx="248.97016"
     inkscape:cy="79.166656"
     inkscape:window-x="0"
     inkscape:window-y="0"
     inkscape:window-maximized="1"
     inkscape:current-layer="g842" /><g
     id="g842"
     inkscape:groupmode="layer"
     inkscape:label="gas"
     transform="scale(1.3333333)"><path
       inkscape:connector-curvature="0"
       id="path846"
       style="fill:#ff0000;fill-opacity:1;fill-rule:evenodd;stroke:none"
       d="m 132.262,45.289 c 0,1.832 -1.485,3.316 -3.317,3.316 -1.832,0 -3.316,-1.484 -3.316,-3.316 0,-1.832 1.484,-3.32 3.316,-3.32 1.832,0 3.317,1.488 3.317,3.32 z" /><g
       id="g848"><path
         inkscape:connector-curvature="0"
         id="path850"
         style="fill:none;stroke:#000000;stroke-width:0.66346198;stroke-linecap:butt;stroke-linejoin:miter;stroke-miterlimit:4;stroke-dasharray:none;stroke-opacity:1"
         d="m 122.312,36.758 h 53.074 v 46.441 h -53.074 z" /></g><g
       id="g852"><path
         inkscape:connector-curvature="0"
         id="path854"
         style="fill:none;stroke:#000000;stroke-width:0.66346198;stroke-linecap:butt;stroke-linejoin:miter;stroke-miterlimit:4;stroke-dasharray:none;stroke-opacity:1"
         d="m 175.387,36.758 h 53.078 v 46.441 h -53.078 z" /></g><g
       id="g856"><path
         inkscape:connector-curvature="0"
         id="path858"
         style="fill:none;stroke:#000000;stroke-width:0.66346198;stroke-linecap:butt;stroke-linejoin:miter;stroke-miterlimit:4;stroke-dasharray:none;stroke-opacity:1"
         d="m 228.465,36.758 h 53.078 v 46.441 h -53.078 z" /></g><path
       inkscape:connector-curvature="0"
       id="path872"
       style="fill:#ff0000;fill-opacity:1;fill-rule:evenodd;stroke:none"
       d="m 152.168,71.824 c 0,1.832 -1.488,3.321 -3.32,3.321 -1.832,0 -3.317,-1.489 -3.317,-3.321 0,-1.832 1.485,-3.316 3.317,-3.316 1.832,0 3.32,1.484 3.32,3.316 z" /><path
       inkscape:connector-curvature="0"
       id="path874"
       style="fill:#ff0000;fill-opacity:1;fill-rule:evenodd;stroke:none"
       d="m 158.801,58.559 c 0,1.832 -1.485,3.316 -3.317,3.316 -1.832,0 -3.316,-1.484 -3.316,-3.316 0,-1.836 1.484,-3.321 3.316,-3.321 1.832,0 3.317,1.485 3.317,3.321 z" /><path
       inkscape:connector-curvature="0"
       id="path876"
       style="fill:#ff0000;fill-opacity:1;fill-rule:evenodd;stroke:none"
       d="m 191.973,65.191 c 0,1.832 -1.485,3.317 -3.317,3.317 -1.832,0 -3.316,-1.485 -3.316,-3.317 0,-1.832 1.484,-3.316 3.316,-3.316 1.832,0 3.317,1.484 3.317,3.316 z" /><path
       inkscape:connector-curvature="0"
       id="path878"
       style="fill:#ff0000;fill-opacity:1;fill-rule:evenodd;stroke:none"
       d="m 191.973,45.289 c 0,1.832 -1.485,3.316 -3.317,3.316 -1.832,0 -3.316,-1.484 -3.316,-3.316 0,-1.832 1.484,-3.32 3.316,-3.32 1.832,0 3.317,1.488 3.317,3.32 z" /><path
       inkscape:connector-curvature="0"
       id="path880"
       style="fill:#ff0000;fill-opacity:1;fill-rule:evenodd;stroke:none"
       d="m 211.879,58.559 c 0,1.832 -1.484,3.316 -3.317,3.316 -1.832,0 -3.32,-1.484 -3.32,-3.316 0,-1.836 1.488,-3.321 3.32,-3.321 1.833,0 3.317,1.485 3.317,3.321 z" /><path
       inkscape:connector-curvature="0"
       id="path882"
       style="fill:#ff0000;fill-opacity:1;fill-rule:evenodd;stroke:none"
       d="m 225.148,45.289 c 0,1.832 -1.484,3.316 -3.316,3.316 -1.836,0 -3.32,-1.484 -3.32,-3.316 0,-1.832 1.484,-3.32 3.32,-3.32 1.832,0 3.316,1.488 3.316,3.32 z" /><path
       inkscape:connector-curvature="0"
       id="path884"
       style="fill:#ff0000;fill-opacity:1;fill-rule:evenodd;stroke:none"
       d="m 225.148,78.461 c 0,1.832 -1.484,3.316 -3.316,3.316 -1.836,0 -3.32,-1.484 -3.32,-3.316 0,-1.832 1.484,-3.316 3.32,-3.316 1.832,0 3.316,1.484 3.316,3.316 z" /><path
       inkscape:connector-curvature="0"
       id="path886"
       style="fill:#ff0000;fill-opacity:1;fill-rule:evenodd;stroke:none"
       d="m 205.242,71.824 c 0,1.832 -1.484,3.321 -3.316,3.321 -1.832,0 -3.317,-1.489 -3.317,-3.321 0,-1.832 1.485,-3.316 3.317,-3.316 1.832,0 3.316,1.484 3.316,3.316 z" /><path
       inkscape:connector-curvature="0"
       id="path920"
       style="fill:#ff0000;fill-opacity:1;fill-rule:evenodd;stroke:none"
       d="m 240.86493,62.745067 c 0,1.832 -1.489,3.316 -3.321,3.316 -1.832,0 -3.316,-1.484 -3.316,-3.316 0,-1.832 1.484,-3.317 3.316,-3.317 1.832,0 3.321,1.485 3.321,3.317 z" /><g
       id="g922"><path
         inkscape:connector-curvature="0"
         id="path924"
         style="fill:none;stroke:#000000;stroke-width:0.66346198;stroke-linecap:butt;stroke-linejoin:miter;stroke-miterlimit:4;stroke-dasharray:none;stroke-opacity:1"
         d="M 122.312,83.199 H 69.234" /></g><g
       id="g926"><path
         inkscape:connector-curvature="0"
         id="path928"
         style="fill:none;stroke:#000000;stroke-width:0.66346198;stroke-linecap:butt;stroke-linejoin:miter;stroke-miterlimit:4;stroke-dasharray:none;stroke-opacity:1"
         d="M 122.312,36.758 H 69.234" /></g><path
       inkscape:connector-curvature="0"
       id="path938"
       style="fill:#ff0000;fill-opacity:1;fill-rule:evenodd;stroke:none"
       d="m 85.82,78.461 c 0,1.832 -1.484,3.316 -3.316,3.316 -1.832,0 -3.316,-1.484 -3.316,-3.316 0,-1.832 1.484,-3.316 3.316,-3.316 1.832,0 3.316,1.484 3.316,3.316 z" /><path
       inkscape:connector-curvature="0"
       id="path940"
       style="fill:#ff0000;fill-opacity:1;fill-rule:evenodd;stroke:none"
       d="m 85.82,58.559 c 0,1.832 -1.484,3.316 -3.316,3.316 -1.832,0 -3.316,-1.484 -3.316,-3.316 0,-1.836 1.484,-3.321 3.316,-3.321 1.832,0 3.316,1.485 3.316,3.321 z" /><path
       inkscape:connector-curvature="0"
       id="path942"
       style="fill:#ff0000;fill-opacity:1;fill-rule:evenodd;stroke:none"
       d="m 99.09,71.824 c 0,1.832 -1.485,3.321 -3.317,3.321 -1.832,0 -3.316,-1.489 -3.316,-3.321 0,-1.832 1.484,-3.316 3.316,-3.316 1.832,0 3.317,1.484 3.317,3.316 z" /><path
       inkscape:connector-curvature="0"
       id="path944"
       style="fill:#ff0000;fill-opacity:1;fill-rule:evenodd;stroke:none"
       d="m 112.359,51.922 c 0,1.832 -1.484,3.316 -3.316,3.316 -1.832,0 -3.32,-1.484 -3.32,-3.316 0,-1.832 1.488,-3.317 3.32,-3.317 1.832,0 3.316,1.485 3.316,3.317 z" /><path
       inkscape:connector-curvature="0"
       id="path946"
       style="fill:#ff0000;fill-opacity:1;fill-rule:evenodd;stroke:none"
       d="m 92.457,45.289 c 0,1.832 -1.488,3.316 -3.32,3.316 -1.832,0 -3.317,-1.484 -3.317,-3.316 0,-1.832 1.485,-3.32 3.317,-3.32 1.832,0 3.32,1.488 3.32,3.32 z" /><path
       inkscape:connector-curvature="0"
       id="path948"
       style="fill:#ff0000;fill-opacity:1;fill-rule:evenodd;stroke:none"
       d="m 118.992,71.824 c 0,1.832 -1.484,3.321 -3.316,3.321 -1.832,0 -3.317,-1.489 -3.317,-3.321 0,-1.832 1.485,-3.316 3.317,-3.316 1.832,0 3.316,1.484 3.316,3.316 z" /><g
       id="g964"><path
         inkscape:connector-curvature="0"
         id="path966"
         style="fill:none;stroke:#000000;stroke-width:0.61125702;stroke-linecap:butt;stroke-linejoin:miter;stroke-miterlimit:4;stroke-dasharray:none;stroke-opacity:1"
         d="m 102.406,30.121 c 0,0 6.637,-13.269 19.906,-13.269 13.27,0 19.903,13.269 19.903,13.269" /></g><g
       transform="matrix(-0.5,-1,1,-0.5,0,0)"
       id="g968"><path
         inkscape:connector-curvature="0"
         id="path970"
         style="fill:#000000;fill-opacity:1;fill-rule:evenodd;stroke:#000000;stroke-width:0.375873;stroke-linecap:butt;stroke-linejoin:round;stroke-miterlimit:4;stroke-dasharray:none;stroke-opacity:1"
         d="m -75.141,104.148 -6.568,-2.417 6.57,-2.414 c -1.048,1.425 -1.044,3.377 -0.002,4.831 z" /></g><g
       id="g972"><path
         inkscape:connector-curvature="0"
         id="path974"
         style="fill:none;stroke:#000000;stroke-width:0.61125702;stroke-linecap:butt;stroke-linejoin:miter;stroke-miterlimit:4;stroke-dasharray:none;stroke-opacity:1"
         d="m 155.484,30.121 c 0,0 6.633,-13.269 19.903,-13.269 13.269,0 19.906,13.269 19.906,13.269" /></g><g
       transform="matrix(-0.5,-1,1,-0.5,0,0)"
       id="g976"><path
         inkscape:connector-curvature="0"
         id="path978"
         style="fill:#000000;fill-opacity:1;fill-rule:evenodd;stroke:#000000;stroke-width:0.375873;stroke-linecap:butt;stroke-linejoin:round;stroke-miterlimit:4;stroke-dasharray:none;stroke-opacity:1"
         d="m -96.372,146.611 -6.569,-2.417 6.572,-2.417 c -1.05,1.428 -1.045,3.379 -0.003,4.834 z" /></g><g
       id="g980"><path
         inkscape:connector-curvature="0"
         id="path982"
         style="fill:none;stroke:#000000;stroke-width:0.61125702;stroke-linecap:butt;stroke-linejoin:miter;stroke-miterlimit:4;stroke-dasharray:none;stroke-opacity:1"
         d="m 208.562,30.121 c 0,0 6.633,-13.269 19.903,-13.269 13.269,0 19.902,13.269 19.902,13.269" /></g><g
       transform="matrix(-0.5,-1,1,-0.5,0,0)"
       id="g984"><path
         inkscape:connector-curvature="0"
         id="path986"
         style="fill:#000000;fill-opacity:1;fill-rule:evenodd;stroke:#000000;stroke-width:0.375873;stroke-linecap:butt;stroke-linejoin:round;stroke-miterlimit:4;stroke-dasharray:none;stroke-opacity:1"
         d="m -117.602,189.07 -6.57,-2.414 6.572,-2.417 c -1.05,1.428 -1.045,3.38 -0.002,4.831 z" /></g><g
       id="g1052"><path
         inkscape:connector-curvature="0"
         id="path1054"
         style="fill:none;stroke:#000000;stroke-width:0.61125702;stroke-linecap:butt;stroke-linejoin:miter;stroke-miterlimit:4;stroke-dasharray:none;stroke-opacity:1"
         d="m 248.367,89.836 c 0,0 -6.633,13.266 -19.902,13.266 -13.27,0 -19.903,-13.266 -19.903,-13.266" /></g><g
       transform="matrix(0.499998,1,-1,0.499998,0,0)"
       id="g1056"><path
         inkscape:connector-curvature="0"
         id="path1058"
         style="fill:#000000;fill-opacity:1;fill-rule:evenodd;stroke:#000000;stroke-width:0.37587401;stroke-linecap:butt;stroke-linejoin:round;stroke-miterlimit:4;stroke-dasharray:none;stroke-opacity:1"
         d="m 161.136,-128.491 -6.57,-2.414 6.571,-2.417 c -1.05,1.428 -1.045,3.379 -0.001,4.831 z" /></g><g
       id="g1060"><path
         inkscape:connector-curvature="0"
         id="path1062"
         style="fill:none;stroke:#000000;stroke-width:0.61125702;stroke-linecap:butt;stroke-linejoin:miter;stroke-miterlimit:4;stroke-dasharray:none;stroke-opacity:1"
         d="m 195.293,89.836 c 0,0 -6.637,13.266 -19.906,13.266 -13.27,0 -19.903,-13.266 -19.903,-13.266" /></g><g
       transform="matrix(0.499998,1,-1,0.499998,0,0)"
       id="g1064"><path
         inkscape:connector-curvature="0"
         id="path1066"
         style="fill:#000000;fill-opacity:1;fill-rule:evenodd;stroke:#000000;stroke-width:0.37587401;stroke-linecap:butt;stroke-linejoin:round;stroke-miterlimit:4;stroke-dasharray:none;stroke-opacity:1"
         d="m 139.905,-86.028 -6.571,-2.414 6.572,-2.418 c -1.048,1.425 -1.044,3.377 -0.001,4.832 z" /></g><g
       id="g1068"><path
         inkscape:connector-curvature="0"
         id="path1070"
         style="fill:none;stroke:#000000;stroke-width:0.61125702;stroke-linecap:butt;stroke-linejoin:miter;stroke-miterlimit:4;stroke-dasharray:none;stroke-opacity:1"
         d="m 142.215,89.836 c 0,0 -6.637,13.266 -19.903,13.266 -13.269,0 -19.906,-13.266 -19.906,-13.266" /></g><g
       transform="matrix(0.499998,1,-1,0.499998,0,0)"
       id="g1072"><path
         inkscape:connector-curvature="0"
         id="path1074"
         style="fill:#000000;fill-opacity:1;fill-rule:evenodd;stroke:#000000;stroke-width:0.37587401;stroke-linecap:butt;stroke-linejoin:round;stroke-miterlimit:4;stroke-dasharray:none;stroke-opacity:1"
         d="m 118.673,-43.566 -6.568,-2.417 6.57,-2.414 c -1.048,1.425 -1.044,3.376 -0.002,4.831 z" /></g><g
       id="g1076"><path
         inkscape:connector-curvature="0"
         id="path1078"
         style="fill:none;stroke:#000000;stroke-width:0.54171401;stroke-linecap:butt;stroke-linejoin:miter;stroke-miterlimit:4;stroke-dasharray:none;stroke-opacity:1"
         d="M 62.598,50.027 H 22.793" /></g><g
       transform="scale(-1)"
       id="g1080"><path
         inkscape:connector-curvature="0"
         id="path1082"
         style="fill:#000000;fill-opacity:1;fill-rule:evenodd;stroke:#000000;stroke-width:0.57782799;stroke-linecap:butt;stroke-linejoin:miter;stroke-miterlimit:4;stroke-dasharray:none;stroke-opacity:1"
         d="m -57.184,-50.027 2.168,-2.164 -7.582,2.164 7.582,2.168 z" /></g><g
       id="g1092"><path
         inkscape:connector-curvature="0"
         id="path1094"
         style="fill:none;stroke:#000000;stroke-width:0.54171401;stroke-linecap:butt;stroke-linejoin:miter;stroke-miterlimit:4;stroke-dasharray:none;stroke-opacity:1"
         d="M 22.793,69.93 H 62.598" /></g><g
       id="g1096"><path
         inkscape:connector-curvature="0"
         id="path1098"
         style="fill:#000000;fill-opacity:1;fill-rule:evenodd;stroke:#000000;stroke-width:0.57782799;stroke-linecap:butt;stroke-linejoin:miter;stroke-miterlimit:4;stroke-dasharray:none;stroke-opacity:1"
         d="m 28.207,69.93 2.168,-2.168 -7.582,2.168 7.582,2.168 z" /></g><g
       id="g1144"
       transform="translate(-159.23)"><g
         id="g868"><path
           d="m 387.695,36.758 h 53.078 v 46.441 h -53.078 z"
           style="fill:none;stroke:#000000;stroke-width:0.66346198;stroke-linecap:butt;stroke-linejoin:miter;stroke-miterlimit:4;stroke-dasharray:none;stroke-opacity:1"
           id="path870"
           inkscape:connector-curvature="0" /></g><path
         d="m 417.551,78.461 c 0,1.832 -1.485,3.316 -3.317,3.316 -1.832,0 -3.316,-1.484 -3.316,-3.316 0,-1.832 1.484,-3.316 3.316,-3.316 1.832,0 3.317,1.484 3.317,3.316 z"
         style="fill:#ff0000;fill-opacity:1;fill-rule:evenodd;stroke:none"
         id="path912"
         inkscape:connector-curvature="0" /><path
         d="m 430.82,58.559 c 0,1.832 -1.484,3.316 -3.316,3.316 -1.832,0 -3.316,-1.484 -3.316,-3.316 0,-1.836 1.484,-3.321 3.316,-3.321 1.832,0 3.316,1.485 3.316,3.321 z"
         style="fill:#ff0000;fill-opacity:1;fill-rule:evenodd;stroke:none"
         id="path914"
         inkscape:connector-curvature="0" /><path
         d="m 417.551,45.289 c 0,1.832 -1.485,3.316 -3.317,3.316 -1.832,0 -3.316,-1.484 -3.316,-3.316 0,-1.832 1.484,-3.32 3.316,-3.32 1.832,0 3.317,1.488 3.317,3.32 z"
         style="fill:#ff0000;fill-opacity:1;fill-rule:evenodd;stroke:none"
         id="path916"
         inkscape:connector-curvature="0" /><path
         d="m 417.551,65.191 c 0,1.832 -1.485,3.317 -3.317,3.317 -1.832,0 -3.316,-1.485 -3.316,-3.317 0,-1.832 1.484,-3.316 3.316,-3.316 1.832,0 3.317,1.484 3.317,3.316 z"
         style="fill:#ff0000;fill-opacity:1;fill-rule:evenodd;stroke:none"
         id="path918"
         inkscape:connector-curvature="0" /><g
         id="g930"><path
           d="M 493.848,36.758 H 440.773"
           style="fill:none;stroke:#000000;stroke-width:0.66346198;stroke-linecap:butt;stroke-linejoin:miter;stroke-miterlimit:4;stroke-dasharray:none;stroke-opacity:1"
           id="path932"
           inkscape:connector-curvature="0" /></g><g
         id="g934"><path
           d="M 493.848,83.199 H 440.773"
           style="fill:none;stroke:#000000;stroke-width:0.66346198;stroke-linecap:butt;stroke-linejoin:miter;stroke-miterlimit:4;stroke-dasharray:none;stroke-opacity:1"
           id="path936"
           inkscape:connector-curvature="0" /></g><path
         d="m 463.992,78.461 c 0,1.832 -1.484,3.316 -3.316,3.316 -1.832,0 -3.317,-1.484 -3.317,-3.316 0,-1.832 1.485,-3.316 3.317,-3.316 1.832,0 3.316,1.484 3.316,3.316 z"
         style="fill:#ff0000;fill-opacity:1;fill-rule:evenodd;stroke:none"
         id="path950"
         inkscape:connector-curvature="0" /><path
         d="m 490.531,78.461 c 0,1.832 -1.484,3.316 -3.316,3.316 -1.832,0 -3.317,-1.484 -3.317,-3.316 0,-1.832 1.485,-3.316 3.317,-3.316 1.832,0 3.316,1.484 3.316,3.316 z"
         style="fill:#ff0000;fill-opacity:1;fill-rule:evenodd;stroke:none"
         id="path952"
         inkscape:connector-curvature="0" /><path
         d="m 483.898,51.922 c 0,1.832 -1.484,3.316 -3.316,3.316 -1.836,0 -3.32,-1.484 -3.32,-3.316 0,-1.832 1.484,-3.317 3.32,-3.317 1.832,0 3.316,1.485 3.316,3.317 z"
         style="fill:#ff0000;fill-opacity:1;fill-rule:evenodd;stroke:none"
         id="path954"
         inkscape:connector-curvature="0" /><path
         d="m 477.262,65.191 c 0,1.832 -1.485,3.317 -3.317,3.317 -1.832,0 -3.316,-1.485 -3.316,-3.317 0,-1.832 1.484,-3.316 3.316,-3.316 1.832,0 3.317,1.484 3.317,3.316 z"
         style="fill:#ff0000;fill-opacity:1;fill-rule:evenodd;stroke:none"
         id="path956"
         inkscape:connector-curvature="0" /><path
         d="m 457.359,51.922 c 0,1.832 -1.484,3.316 -3.316,3.316 -1.832,0 -3.32,-1.484 -3.32,-3.316 0,-1.832 1.488,-3.317 3.32,-3.317 1.832,0 3.316,1.485 3.316,3.317 z"
         style="fill:#ff0000;fill-opacity:1;fill-rule:evenodd;stroke:none"
         id="path958"
         inkscape:connector-curvature="0" /><path
         d="m 450.723,71.824 c 0,1.832 -1.485,3.321 -3.317,3.321 -1.832,0 -3.316,-1.489 -3.316,-3.321 0,-1.832 1.484,-3.316 3.316,-3.316 1.832,0 3.317,1.484 3.317,3.316 z"
         style="fill:#ff0000;fill-opacity:1;fill-rule:evenodd;stroke:none"
         id="path960"
         inkscape:connector-curvature="0" /><path
         d="m 470.629,45.289 c 0,1.832 -1.484,3.316 -3.317,3.316 -1.832,0 -3.32,-1.484 -3.32,-3.316 0,-1.832 1.488,-3.32 3.32,-3.32 1.833,0 3.317,1.488 3.317,3.32 z"
         style="fill:#ff0000;fill-opacity:1;fill-rule:evenodd;stroke:none"
         id="path962"
         inkscape:connector-curvature="0" /><g
         id="g1012"><path
           d="m 420.867,30.121 c 0,0 6.637,-13.269 19.906,-13.269 13.27,0 19.903,13.269 19.903,13.269"
           style="fill:none;stroke:#000000;stroke-width:0.61125702;stroke-linecap:butt;stroke-linejoin:miter;stroke-miterlimit:4;stroke-dasharray:none;stroke-opacity:1"
           id="path1014"
           inkscape:connector-curvature="0" /></g><g
         id="g1016"
         transform="matrix(-0.499999,-1,1,-0.499999,0,0)"><path
           d="m -202.525,358.917 -6.57,-2.414 6.572,-2.417 c -1.049,1.425 -1.044,3.377 -0.002,4.831 z"
           style="fill:#000000;fill-opacity:1;fill-rule:evenodd;stroke:#000000;stroke-width:0.375873;stroke-linecap:butt;stroke-linejoin:round;stroke-miterlimit:4;stroke-dasharray:none;stroke-opacity:1"
           id="path1018"
           inkscape:connector-curvature="0" /></g><g
         id="g1020"><path
           d="m 460.676,89.836 c 0,0 -6.633,13.266 -19.903,13.266 -13.269,0 -19.906,-13.266 -19.906,-13.266"
           style="fill:none;stroke:#000000;stroke-width:0.61125702;stroke-linecap:butt;stroke-linejoin:miter;stroke-miterlimit:4;stroke-dasharray:none;stroke-opacity:1"
           id="path1022"
           inkscape:connector-curvature="0" /></g><g
         id="g1024"
         transform="matrix(0.499998,1,-1,0.499998,0,0)"><path
           d="m 246.058,-298.335 -6.569,-2.417 6.572,-2.417 c -1.05,1.428 -1.046,3.379 -0.003,4.834 z"
           style="fill:#000000;fill-opacity:1;fill-rule:evenodd;stroke:#000000;stroke-width:0.37587401;stroke-linecap:butt;stroke-linejoin:round;stroke-miterlimit:4;stroke-dasharray:none;stroke-opacity:1"
           id="path1026"
           inkscape:connector-curvature="0" /></g><g
         id="g1084"><path
           d="M 540.293,50.027 H 500.484"
           style="fill:none;stroke:#000000;stroke-width:0.54171401;stroke-linecap:butt;stroke-linejoin:miter;stroke-miterlimit:4;stroke-dasharray:none;stroke-opacity:1"
           id="path1086"
           inkscape:connector-curvature="0" /></g><g
         id="g1088"
         transform="scale(-1)"><path
           d="m -534.875,-50.027 2.168,-2.164 -7.586,2.164 7.586,2.168 z"
           style="fill:#000000;fill-opacity:1;fill-rule:evenodd;stroke:#000000;stroke-width:0.57782799;stroke-linecap:butt;stroke-linejoin:miter;stroke-miterlimit:4;stroke-dasharray:none;stroke-opacity:1"
           id="path1090"
           inkscape:connector-curvature="0" /></g><g
         id="g1100"><path
           d="m 500.484,69.93 h 39.809"
           style="fill:none;stroke:#000000;stroke-width:0.54171401;stroke-linecap:butt;stroke-linejoin:miter;stroke-miterlimit:4;stroke-dasharray:none;stroke-opacity:1"
           id="path1102"
           inkscape:connector-curvature="0" /></g><g
         id="g1104"><path
           d="m 505.902,69.93 2.164,-2.168 -7.582,2.168 7.582,2.168 z"
           style="fill:#000000;fill-opacity:1;fill-rule:evenodd;stroke:#000000;stroke-width:0.57782799;stroke-linecap:butt;stroke-linejoin:miter;stroke-miterlimit:4;stroke-dasharray:none;stroke-opacity:1"
           id="path1106"
           inkscape:connector-curvature="0" /></g></g></g></svg>